<?xml version="1.0" ?>
<!-- Uploaded to: SVG Repo, www.svgrepo.com, Generator: SVG Repo Mixer Tools -->
<svg fill="#000000" width="800px" height="800px" viewBox="0 0 64 64" id="Layer_1_1_" version="1.1" xml:space="preserve" xmlns="http://www.w3.org/2000/svg" xmlns:xlink="http://www.w3.org/1999/xlink">
<g>
<rect height="2" width="2" x="61" y="61"/>
<rect height="2" width="2" x="1" y="61"/>
<path d="M32,28c1.654,0,3-1.346,3-3s-1.346-3-3-3s-3,1.346-3,3S30.346,28,32,28z M32,24c0.552,0,1,0.448,1,1s-0.448,1-1,1   s-1-0.448-1-1S31.448,24,32,24z"/>
<path d="M43.697,23l9,6H55v-5.101c2.279-0.465,4-2.484,4-4.899s-1.721-4.434-4-4.899V9h-2.303l-9,6h-3.079l-2-4H33V6.816   C34.161,6.402,35,5.302,35,4c0-1.654-1.346-3-3-3s-3,1.346-3,3c0,1.302,0.839,2.402,2,2.816V11h-5.618l-2,4h-3.079l-9-6H9v5.101   C6.721,14.566,5,16.586,5,19s1.721,4.434,4,4.899V29h2.303l9-6h0.58l-3.778,34H16c-2.414,0-4.434,1.721-4.899,4H5v2h54v-2h-6.101   c-0.465-2.279-2.484-4-4.899-4h-1.105l-3.778-34H43.697z M32,3c0.552,0,1,0.448,1,1s-0.448,1-1,1s-1-0.448-1-1S31.448,3,32,3z    M57,19c0,1.302-0.839,2.402-2,2.816v-5.631C56.161,16.598,57,17.698,57,19z M53,11.202v15.596l-8-5.333v-4.93L53,11.202z    M26.618,13h10.764l1,2H25.618L26.618,13z M21,17h22v4h-5.264c-1.267-1.811-3.364-3-5.736-3s-4.469,1.189-5.736,3H21V17z    M21.599,43L32,38.105L42.4,43H21.599z M42.401,45L32,49.894L21.599,45H42.401z M20.881,41.126l0.872-7.843L29.65,37L20.881,41.126   z M29.651,51L19.24,55.899l1.035-9.311L29.651,51z M32,52.106L42.401,57H21.599L32,52.106z M34.35,51l9.376-4.412l1.035,9.311   L34.35,51z M34.349,37l7.898-3.717l0.872,7.844L34.349,37z M42.014,31.182L32,35.894l-10.014-4.713l0.043-0.384l4.133-1.945   C27.416,30.747,29.564,32,32,32s4.584-1.253,5.838-3.147l4.133,1.945L42.014,31.182z M27,25c0-2.757,2.243-5,5-5s5,2.243,5,5   s-2.243,5-5,5S27,27.757,27,25z M7,19c0-1.302,0.839-2.402,2-2.816v5.631C7.839,21.402,7,20.302,7,19z M11,26.798V11.202l8,5.333   v4.93L11,26.798z M25.295,23C25.105,23.634,25,24.305,25,25c0,0.711,0.108,1.397,0.306,2.044l-3.018,1.42L22.895,23H25.295z    M50.816,61H13.184c0.414-1.161,1.514-2,2.816-2h32C49.302,59,50.402,59.839,50.816,61z M41.712,28.464l-3.018-1.42   C38.892,26.397,39,25.711,39,25c0-0.695-0.105-1.366-0.295-2h2.4L41.712,28.464z"/>
</g>
</svg>