<svg xmlns="http://www.w3.org/2000/svg" viewBox="0 0 252.31 242.68"><defs><style>.cls-1{fill:#e30613;}</style></defs><g id="Layer_4" data-name="Layer 4"><path class="cls-1" d="M240.34,44.93h0A90.24,90.24,0,0,0,126.15,7.59,90,90,0,0,0,36.72,162.48a90,90,0,0,0,178.86,0A90.25,90.25,0,0,0,240.34,44.93ZM228.06,52h0a76.12,76.12,0,0,1-11.83,91.29A155.13,155.13,0,0,0,143.09,16.61,76.12,76.12,0,0,1,228.06,52ZM50.36,154.61a140.62,140.62,0,0,1,75.8-131.29A140.66,140.66,0,0,1,202,154.59a140.67,140.67,0,0,1-151.6,0ZM24.25,52A76.07,76.07,0,0,1,90.12,14.15a75.19,75.19,0,0,1,19.11,2.47A155.1,155.1,0,0,0,36.08,143.31,76.13,76.13,0,0,1,24.25,52Zm101.9,176.49A76.12,76.12,0,0,1,53,172.62a155.09,155.09,0,0,0,146.28,0A76.13,76.13,0,0,1,126.15,228.51Z"/><rect x="92.34" y="93.86" width="11.47" height="63.78"/><path d="M64.21,93.86v63.78H75.68V129h1.43a2.15,2.15,0,0,1,2.15,2.15v26.51H90.73v-25.8a7.18,7.18,0,0,0-1.44-4.3l-2.86-2.86L89,122.17a7.13,7.13,0,0,0,1.73-4.66V101a7.17,7.17,0,0,0-7.17-7.17Zm11.47,27.23V101.74h1.43a2.15,2.15,0,0,1,2.15,2.15v15a2.15,2.15,0,0,1-2.15,2.15Z"/><path d="M161.67,101v49.44a7.17,7.17,0,0,0,7.17,7.17H181a7.17,7.17,0,0,0,7.17-7.17V101A7.17,7.17,0,0,0,181,93.86H168.84A7.17,7.17,0,0,0,161.67,101Zm11.47,47.29V103.18a1.44,1.44,0,0,1,1.43-1.44h.72a1.44,1.44,0,0,1,1.43,1.44v45.14a1.43,1.43,0,0,1-1.43,1.44h-.72A1.43,1.43,0,0,1,173.14,148.32Z"/><path d="M131.93,116.79V101a7.17,7.17,0,0,0-7.16-7.17H112.58a7.17,7.17,0,0,0-7.16,7.17v17.14a7.16,7.16,0,0,0,2.94,5.79l10.34,6.83a4.3,4.3,0,0,1,1.77,3.47v14.06a1.43,1.43,0,0,1-1.44,1.44h-.71a1.44,1.44,0,0,1-1.44-1.44V132.56H105.42v17.91a7.17,7.17,0,0,0,7.16,7.17h12.19a7.17,7.17,0,0,0,7.16-7.17V131.18a7.16,7.16,0,0,0-2.94-5.79l-10.34-6.82a4.31,4.31,0,0,1-1.77-3.48V103.18a1.45,1.45,0,0,1,1.44-1.44H119a1.44,1.44,0,0,1,1.44,1.44v13.61Z"/><path d="M148.59,130.41v17.91a1.43,1.43,0,0,1-1.43,1.44h-.72a1.43,1.43,0,0,1-1.43-1.44V103.18a1.44,1.44,0,0,1,1.43-1.44h.72a1.44,1.44,0,0,1,1.43,1.44v15h11.47V101a7.17,7.17,0,0,0-7.17-7.17H140.71a7.16,7.16,0,0,0-7.16,7.17v49.44a7.16,7.16,0,0,0,7.16,7.17h12.18a7.17,7.17,0,0,0,7.17-7.17V130.41Z"/></g><g id="Layer_4_copia_2" data-name="Layer 4 copia 2"><path class="cls-1" d="M240.34,44.93h0A90.24,90.24,0,0,0,126.15,7.59,90,90,0,0,0,36.72,162.48a90,90,0,0,0,178.86,0A90.25,90.25,0,0,0,240.34,44.93ZM228.06,52h0a76.12,76.12,0,0,1-11.83,91.29A155.13,155.13,0,0,0,143.09,16.61,76.12,76.12,0,0,1,228.06,52ZM50.36,154.61a140.62,140.62,0,0,1,75.8-131.29A140.66,140.66,0,0,1,202,154.59a140.67,140.67,0,0,1-151.6,0ZM24.25,52A76.07,76.07,0,0,1,90.12,14.15a75.19,75.19,0,0,1,19.11,2.47A155.1,155.1,0,0,0,36.08,143.31,76.13,76.13,0,0,1,24.25,52Zm101.9,176.49A76.12,76.12,0,0,1,53,172.62a155.09,155.09,0,0,0,146.28,0A76.13,76.13,0,0,1,126.15,228.51Z"/></g></svg>